<svg id="svg" version="1.1" xmlns="http://www.w3.org/2000/svg" xmlns:xlink="http://www.w3.org/1999/xlink" width="400" height="400" viewBox="0, 0, 400,400"><g id="svgg"><path id="path0" d="M131.250 142.995 C 121.979 144.503,115.295 147.806,109.167 153.906 C 105.745 157.312,106.260 156.589,95.613 172.951 C 90.580 180.684,86.090 187.583,85.634 188.281 C 85.178 188.979,82.464 193.154,79.603 197.559 C 76.741 201.963,73.239 207.350,71.819 209.530 C 66.591 217.561,64.075 221.433,62.863 223.318 C 62.180 224.380,61.092 226.050,60.445 227.029 C 58.587 229.841,58.145 230.649,58.624 230.352 C 58.765 230.265,58.796 230.299,58.708 230.442 C 58.630 230.568,58.493 230.625,58.403 230.569 C 58.248 230.474,57.777 231.148,54.920 235.547 C 47.044 247.677,43.672 252.863,23.659 283.628 C 17.951 292.401,13.281 299.630,13.281 299.692 C 13.281 299.754,33.518 299.783,58.252 299.756 L 103.223 299.708 58.447 299.658 C 33.821 299.631,13.672 299.543,13.672 299.462 C 13.672 299.382,34.480 299.360,59.912 299.414 C 106.697 299.513,106.920 299.510,110.254 298.852 C 112.057 298.496,116.018 297.135,118.164 296.134 C 120.276 295.149,125.195 292.077,125.195 291.744 C 125.195 291.655,124.800 291.855,124.316 292.188 C 122.942 293.133,123.286 292.745,124.854 291.580 C 125.632 291.002,127.245 289.585,128.437 288.431 C 129.629 287.277,130.655 286.384,130.716 286.445 C 130.850 286.579,133.203 283.659,133.203 283.359 C 133.203 283.244,132.698 283.813,132.080 284.624 C 131.462 285.435,130.929 286.071,130.895 286.038 C 130.861 286.004,131.395 285.243,132.081 284.346 C 132.766 283.449,133.526 282.385,133.769 281.982 C 134.013 281.580,134.254 281.250,134.305 281.250 C 134.405 281.250,134.354 281.345,133.654 282.471 C 133.403 282.874,133.265 283.200,133.347 283.196 C 133.429 283.192,135.342 280.331,137.598 276.838 C 139.854 273.345,142.942 268.580,144.460 266.250 C 145.979 263.919,147.703 261.265,148.292 260.352 C 148.881 259.438,150.136 257.505,151.081 256.055 C 152.026 254.604,153.282 252.671,153.872 251.758 C 154.461 250.845,155.402 249.395,155.962 248.535 C 156.522 247.676,160.319 241.831,164.399 235.547 C 168.479 229.263,176.649 216.694,182.553 207.617 C 194.384 189.430,194.278 189.594,196.067 186.816 C 196.759 185.742,197.653 184.380,198.054 183.789 C 199.241 182.039,200.004 180.664,199.788 180.664 C 199.677 180.664,199.642 180.575,199.709 180.466 C 199.776 180.356,199.905 180.313,199.995 180.368 C 200.184 180.485,200.926 179.376,208.108 168.262 C 212.027 162.198,213.900 159.444,215.588 157.266 C 216.279 156.375,216.808 155.610,216.765 155.567 C 216.519 155.321,213.075 160.195,208.313 167.529 C 206.621 170.134,205.196 172.266,205.146 172.266 C 205.031 172.266,204.768 172.680,208.856 166.406 C 216.209 155.122,221.339 149.133,227.930 144.138 C 228.521 143.690,228.700 143.596,228.328 143.928 C 227.956 144.260,227.718 144.531,227.799 144.531 C 227.961 144.531,230.078 142.967,230.078 142.848 C 230.078 142.685,132.260 142.830,131.250 142.995 M229.385 143.115 C 229.283 143.196,207.534 143.217,181.055 143.163 L 132.910 143.065 181.240 143.017 C 207.822 142.990,229.487 143.035,229.385 143.115 M132.568 143.299 C 132.380 143.348,132.073 143.348,131.885 143.299 C 131.697 143.250,131.851 143.209,132.227 143.209 C 132.603 143.209,132.756 143.250,132.568 143.299 M130.859 143.498 C 129.888 143.605,127.687 144.064,125.982 144.514 C 125.179 144.726,124.492 144.869,124.454 144.831 C 124.376 144.753,125.948 144.297,127.539 143.937 C 128.130 143.803,128.877 143.626,129.199 143.544 C 129.521 143.462,130.181 143.401,130.664 143.408 C 131.406 143.420,131.437 143.434,130.859 143.498 M225.858 146.028 C 222.680 148.781,216.607 155.149,216.890 155.432 C 216.946 155.488,217.019 155.497,217.052 155.452 C 218.721 153.175,225.441 146.455,227.718 144.786 C 227.763 144.753,227.754 144.681,227.698 144.625 C 227.642 144.569,226.814 145.200,225.858 146.028 M123.031 145.394 C 122.986 145.439,122.466 145.666,121.875 145.898 C 121.284 146.131,120.874 146.248,120.963 146.159 C 121.053 146.069,121.492 145.847,121.940 145.665 C 122.730 145.344,123.197 145.228,123.031 145.394 M118.858 147.284 C 117.790 147.827,116.691 148.425,116.417 148.615 C 115.712 149.101,115.430 149.256,115.430 149.153 C 115.430 148.894,120.144 146.291,120.605 146.296 C 120.713 146.297,119.927 146.742,118.858 147.284 M115.218 149.300 C 115.173 149.344,114.330 149.982,113.345 150.716 C 112.360 151.450,111.085 152.484,110.513 153.014 C 108.804 154.595,108.365 154.885,109.849 153.452 C 111.082 152.261,114.924 149.219,115.194 149.219 C 115.252 149.219,115.263 149.255,115.218 149.300 M107.032 156.667 C 105.511 158.427,105.100 159.041,93.557 176.800 C 89.108 183.644,85.438 189.214,85.401 189.177 C 85.365 189.141,86.419 187.452,87.743 185.424 C 89.068 183.397,90.781 180.771,91.550 179.590 C 92.318 178.408,95.634 173.311,98.918 168.262 C 104.638 159.469,107.740 155.090,108.255 155.081 C 108.338 155.079,107.787 155.793,107.032 156.667 M204.953 172.705 C 203.612 174.920,199.416 181.136,200.120 179.864 C 200.533 179.118,204.933 172.461,205.013 172.461 C 205.061 172.461,205.035 172.571,204.953 172.705 M199.366 181.299 C 199.208 181.541,198.666 182.375,198.163 183.154 C 197.659 183.933,197.204 184.570,197.153 184.570 C 197.065 184.570,197.759 183.439,198.959 181.625 C 199.238 181.204,199.508 180.859,199.560 180.859 C 199.612 180.859,199.525 181.057,199.366 181.299 M196.958 185.010 C 196.606 185.646,195.059 187.891,194.974 187.891 C 194.876 187.891,195.012 187.668,196.253 185.791 C 196.858 184.875,197.310 184.374,196.958 185.010 M194.807 188.330 C 194.415 189.026,192.541 191.797,192.462 191.797 C 192.377 191.797,193.082 190.650,194.272 188.852 C 194.741 188.143,195.122 187.772,194.807 188.330 M83.854 191.748 C 82.363 194.053,81.571 195.110,82.428 193.652 C 83.112 192.488,85.153 189.453,85.253 189.453 C 85.300 189.453,84.671 190.486,83.854 191.748 M191.572 193.370 C 191.327 193.806,191.002 194.266,190.849 194.393 C 190.697 194.519,190.855 194.163,191.201 193.600 C 191.943 192.395,192.215 192.227,191.572 193.370 M81.037 196.043 C 79.978 197.664,79.679 198.047,80.081 197.266 C 80.421 196.606,81.829 194.531,81.937 194.531 C 81.984 194.531,81.579 195.211,81.037 196.043 M189.052 197.242 C 188.818 197.659,188.415 198.252,188.157 198.561 C 187.899 198.869,188.057 198.528,188.508 197.803 C 189.401 196.370,189.737 196.023,189.052 197.242 M77.901 200.879 C 77.126 202.115,76.706 202.592,77.170 201.709 C 77.491 201.100,78.517 199.609,78.616 199.609 C 78.660 199.609,78.339 200.181,77.901 200.879 M186.894 200.537 C 186.184 201.710,184.954 203.516,184.863 203.516 C 184.818 203.516,185.315 202.681,185.968 201.660 C 187.111 199.872,187.802 199.035,186.894 200.537 M75.216 205.029 C 74.844 205.708,74.355 206.232,74.625 205.664 C 74.877 205.133,75.196 204.688,75.324 204.688 C 75.368 204.688,75.320 204.841,75.216 205.029 M183.766 205.322 C 183.431 205.957,182.032 208.008,181.933 208.008 C 181.888 208.008,182.305 207.305,182.860 206.445 C 183.848 204.917,184.230 204.444,183.766 205.322 M73.496 207.666 C 73.410 207.800,73.047 208.372,72.688 208.936 C 71.947 210.102,71.612 210.345,72.284 209.229 C 72.917 208.176,73.449 207.422,73.558 207.422 C 73.610 207.422,73.582 207.532,73.496 207.666 M181.424 208.936 C 180.250 210.873,177.741 214.515,178.441 213.266 C 178.846 212.541,181.714 208.203,181.787 208.203 C 181.832 208.203,181.668 208.533,181.424 208.936 M70.799 211.832 C 69.590 213.722,69.091 214.453,69.010 214.453 C 68.876 214.453,69.359 213.631,70.361 212.158 C 71.494 210.491,71.805 210.260,70.799 211.832 M178.193 213.916 C 175.975 217.521,164.520 234.887,165.355 233.379 C 165.784 232.604,178.177 213.672,178.255 213.672 C 178.304 213.672,178.276 213.782,178.193 213.916 M68.824 214.893 C 68.220 215.918,66.518 218.279,66.889 217.578 C 67.188 217.015,68.798 214.648,68.883 214.648 C 68.930 214.648,68.904 214.758,68.824 214.893 M66.102 219.092 C 64.921 220.910,64.387 221.680,64.305 221.680 C 64.254 221.680,64.370 221.438,64.562 221.143 C 65.743 219.325,66.277 218.555,66.359 218.555 C 66.410 218.555,66.294 218.796,66.102 219.092 M63.800 222.607 C 62.261 225.042,59.107 229.816,58.929 229.980 C 58.812 230.088,58.857 229.950,59.027 229.675 C 59.558 228.816,61.535 225.763,62.728 223.962 C 63.354 223.015,63.867 222.158,63.867 222.058 C 63.867 221.957,63.956 221.875,64.065 221.875 C 64.174 221.875,64.054 222.205,63.800 222.607 M58.272 231.104 C 57.403 232.524,51.473 241.552,51.313 241.699 C 51.035 241.954,51.207 241.681,55.013 235.828 C 56.790 233.095,58.283 230.859,58.332 230.859 C 58.381 230.859,58.354 230.969,58.272 231.104 M165.114 234.033 C 164.705 234.728,163.005 237.233,162.828 237.402 C 162.588 237.632,163.013 236.932,164.223 235.107 C 164.703 234.382,165.133 233.789,165.177 233.789 C 165.221 233.789,165.193 233.899,165.114 234.033 M162.571 237.939 C 161.230 240.154,157.033 246.370,157.737 245.098 C 158.151 244.353,162.550 237.695,162.630 237.695 C 162.679 237.695,162.652 237.805,162.571 237.939 M50.508 243.049 C 49.203 245.089,48.381 246.289,48.290 246.289 C 48.239 246.289,48.331 246.085,48.494 245.837 C 48.657 245.588,49.288 244.621,49.896 243.688 C 50.504 242.755,51.042 241.992,51.093 241.992 C 51.143 241.992,50.880 242.468,50.508 243.049 M157.491 245.752 C 156.732 246.994,152.840 252.877,152.678 253.027 C 152.403 253.282,152.646 252.892,155.265 248.877 C 156.474 247.024,157.503 245.508,157.552 245.508 C 157.600 245.508,157.573 245.618,157.491 245.752 M47.934 247.021 C 47.740 247.317,42.269 255.732,35.776 265.723 C 29.282 275.713,23.884 283.975,23.779 284.082 C 23.369 284.502,24.316 282.952,26.586 279.492 C 27.889 277.505,33.260 269.265,38.522 261.182 C 43.783 253.098,48.132 246.484,48.187 246.484 C 48.242 246.484,48.128 246.726,47.934 247.021 M152.418 253.564 C 152.009 254.259,150.310 256.765,150.133 256.934 C 149.893 257.163,150.318 256.464,151.527 254.639 C 152.008 253.914,152.437 253.320,152.482 253.320 C 152.526 253.320,152.497 253.430,152.418 253.564 M149.395 258.239 C 149.116 258.760,147.856 260.571,147.586 260.840 C 147.364 261.060,147.790 260.353,148.792 258.838 C 149.483 257.791,149.806 257.471,149.395 258.239 M147.341 261.377 C 146.797 262.307,145.073 264.844,144.985 264.844 C 144.925 264.844,145.034 264.602,145.226 264.307 C 146.479 262.379,147.334 261.133,147.403 261.133 C 147.448 261.133,147.420 261.243,147.341 261.377 M144.807 265.283 C 144.439 265.936,142.543 268.750,142.471 268.750 C 142.426 268.750,142.542 268.508,142.729 268.213 C 144.109 266.033,144.774 265.039,144.853 265.039 C 144.904 265.039,144.883 265.149,144.807 265.283 M141.710 270.068 C 141.550 270.364,141.230 270.825,140.999 271.094 L 140.579 271.582 140.895 271.045 C 141.724 269.637,142.357 268.879,141.710 270.068 M139.052 274.195 C 138.818 274.612,138.415 275.205,138.157 275.514 C 137.899 275.822,138.057 275.481,138.508 274.756 C 139.401 273.323,139.737 272.976,139.052 274.195 M136.305 278.369 C 135.971 279.004,134.571 281.055,134.472 281.055 C 134.427 281.055,134.844 280.352,135.399 279.492 C 136.387 277.964,136.769 277.491,136.305 278.369 M22.638 285.886 C 21.580 287.508,21.280 287.891,21.683 287.109 C 22.023 286.450,23.431 284.375,23.538 284.375 C 23.586 284.375,23.181 285.055,22.638 285.886 M128.798 288.298 C 127.837 289.268,126.635 290.380,126.127 290.770 C 125.619 291.161,125.244 291.520,125.292 291.568 C 125.340 291.616,125.712 291.404,126.118 291.096 C 127.173 290.295,130.767 286.756,130.647 286.636 C 130.591 286.581,129.760 287.329,128.798 288.298 M20.099 289.793 C 19.041 291.414,18.741 291.797,19.144 291.016 C 19.484 290.356,20.891 288.281,20.999 288.281 C 21.047 288.281,20.642 288.961,20.099 289.793 M123.082 293.024 C 122.967 293.162,122.495 293.483,122.033 293.738 C 121.013 294.300,121.135 294.124,122.293 293.363 C 123.271 292.720,123.369 292.679,123.082 293.024 M16.984 294.568 C 16.124 295.898,15.827 296.261,16.213 295.508 C 16.540 294.871,17.573 293.359,17.681 293.359 C 17.727 293.359,17.413 293.903,16.984 294.568 M120.986 294.318 C 120.697 294.593,119.298 295.340,119.219 295.261 C 119.180 295.222,119.564 294.959,120.072 294.676 C 121.069 294.122,121.277 294.041,120.986 294.318 M118.057 295.884 C 117.556 296.371,111.887 298.343,111.470 298.175 C 111.322 298.115,111.351 298.072,111.546 298.062 C 112.034 298.039,115.174 296.970,116.699 296.309 C 118.203 295.658,118.329 295.618,118.057 295.884 M14.610 298.244 C 14.275 298.783,13.963 299.184,13.916 299.137 C 13.828 299.049,14.993 297.266,15.138 297.266 C 15.182 297.266,14.944 297.706,14.610 298.244 M110.840 298.438 C 110.625 298.530,110.229 298.601,109.961 298.596 C 109.518 298.587,109.527 298.573,110.059 298.438 C 110.872 298.231,111.321 298.231,110.840 298.438 M109.359 298.713 C 109.314 298.757,108.809 298.879,108.237 298.982 C 107.664 299.086,107.269 299.101,107.358 299.015 C 107.508 298.869,108.174 298.732,109.066 298.662 C 109.272 298.646,109.403 298.669,109.359 298.713 M106.348 299.230 C 105.918 299.319,105.259 299.383,104.883 299.373 C 104.256 299.357,104.273 299.344,105.078 299.219 C 106.402 299.013,107.356 299.021,106.348 299.230 " stroke="none" fill="#046bb4" fill-rule="evenodd"></path><path id="path1" d="M201.563 27.471 C 201.563 27.608,202.823 29.622,204.845 32.715 C 205.548 33.789,206.664 35.503,207.326 36.523 C 207.987 37.544,209.014 39.126,209.607 40.039 C 224.027 62.235,243.296 91.904,244.110 93.164 C 244.700 94.077,245.636 95.527,246.190 96.387 C 251.676 104.895,253.913 107.731,257.520 110.752 C 260.696 113.413,263.348 115.007,268.066 117.089 C 269.583 117.758,272.368 118.561,275.098 119.117 C 278.132 119.735,279.546 119.751,325.104 119.690 L 370.814 119.629 364.017 109.180 C 360.279 103.433,356.704 97.939,356.073 96.973 C 355.442 96.006,354.247 94.160,353.416 92.871 C 352.585 91.582,351.444 89.824,350.881 88.965 C 350.317 88.105,349.264 86.479,348.540 85.352 C 347.816 84.224,346.764 82.598,346.201 81.738 C 344.638 79.352,342.295 75.749,337.500 68.359 C 321.516 43.725,320.724 42.539,318.945 40.546 C 312.269 33.065,304.230 28.879,294.141 27.630 C 291.780 27.338,201.563 27.182,201.563 27.471 " stroke="none" fill="#ec1b2c" fill-rule="evenodd"></path><path id="path2" d="M276.953 143.066 C 267.906 144.390,258.915 149.308,253.210 156.055 C 251.379 158.221,251.602 157.885,231.865 188.243 C 230.936 189.672,229.648 191.655,229.004 192.649 C 227.627 194.772,224.966 198.861,223.521 201.074 C 222.960 201.934,221.819 203.691,220.986 204.980 C 220.152 206.270,218.898 208.203,218.197 209.277 C 217.497 210.352,216.469 211.934,215.912 212.793 C 213.741 216.148,211.433 219.699,210.455 221.191 C 207.222 226.124,201.694 234.704,201.613 234.917 C 201.476 235.272,294.329 235.157,295.801 234.801 C 296.338 234.671,297.261 234.470,297.852 234.355 C 300.246 233.889,303.388 232.849,305.821 231.718 C 306.605 231.353,307.280 231.055,307.319 231.055 C 307.793 231.055,312.620 227.897,314.453 226.387 C 319.344 222.359,317.303 225.292,346.597 180.176 C 351.619 172.441,356.274 165.278,356.941 164.258 C 358.042 162.574,360.281 159.127,360.747 158.398 C 361.504 157.215,363.537 154.079,364.545 152.539 C 365.213 151.519,365.922 150.420,366.120 150.098 C 366.319 149.775,367.473 147.996,368.686 146.143 L 370.891 142.773 324.752 142.798 C 289.091 142.817,278.236 142.878,276.953 143.066 " stroke="none" fill="#acc42b" fill-rule="evenodd"></path><path id="path3" d="M13.281 349.399 L 13.281 372.656 18.848 372.656 L 24.414 372.656 24.414 364.941 L 24.414 357.227 29.639 357.223 C 43.471 357.214,48.958 353.144,49.546 342.457 C 49.975 334.650,46.598 329.134,40.218 327.220 C 37.213 326.318,37.336 326.326,25.049 326.232 L 13.281 326.142 13.281 349.399 M55.273 349.414 L 55.273 372.656 70.508 372.656 L 85.742 372.656 85.742 367.480 L 85.742 362.305 76.074 362.305 L 66.406 362.305 66.406 358.398 L 66.406 354.492 75.781 354.492 L 85.156 354.492 85.156 349.316 L 85.156 344.141 75.781 344.141 L 66.406 344.141 66.406 340.332 L 66.406 336.523 76.074 336.523 L 85.742 336.523 85.742 331.348 L 85.742 326.172 70.508 326.172 L 55.273 326.172 55.273 349.414 M94.922 349.403 L 94.922 372.656 100.391 372.656 L 105.859 372.656 105.859 363.770 L 105.859 354.883 106.824 354.883 L 107.789 354.883 112.207 360.791 C 114.636 364.041,116.773 366.890,116.955 367.123 C 117.136 367.356,118.120 368.690,119.141 370.089 L 120.996 372.631 127.881 372.644 C 133.913 372.655,135.398 372.564,134.611 372.233 C 134.526 372.197,133.582 371.069,132.515 369.727 C 131.447 368.384,130.426 367.109,130.247 366.895 C 129.689 366.227,121.631 356.217,120.655 354.980 L 119.731 353.809 120.805 353.486 C 126.711 351.713,129.923 347.132,129.958 340.430 C 129.996 333.060,126.852 328.614,120.208 326.641 C 119.161 326.331,117.819 326.288,106.982 326.223 L 94.922 326.150 94.922 349.403 M134.180 331.348 L 134.180 336.523 140.527 336.523 L 146.875 336.523 146.875 354.590 L 146.875 372.656 152.441 372.656 L 158.008 372.656 158.008 354.590 L 158.008 336.523 164.355 336.523 L 170.703 336.523 170.703 331.348 L 170.703 326.172 152.441 326.172 L 134.180 326.172 134.180 331.348 M183.146 326.514 C 183.089 326.702,182.545 328.262,181.936 329.980 C 181.327 331.699,180.666 333.589,180.468 334.180 C 180.269 334.771,179.699 336.396,179.201 337.793 C 178.703 339.189,178.133 340.815,177.934 341.406 C 177.736 341.997,177.075 343.887,176.466 345.605 C 175.858 347.324,175.197 349.214,174.999 349.805 C 174.801 350.396,174.401 351.538,174.112 352.344 C 173.615 353.725,172.277 357.547,170.113 363.770 C 169.590 365.273,168.750 367.646,168.246 369.043 C 167.742 370.439,167.288 371.824,167.237 372.119 L 167.143 372.656 173.016 372.656 L 178.888 372.656 179.077 372.021 C 179.264 371.393,180.604 367.619,181.175 366.113 C 181.338 365.684,181.520 365.177,181.579 364.988 C 181.680 364.666,182.173 364.647,189.230 364.695 L 196.773 364.746 198.088 368.652 C 198.810 370.801,199.405 372.581,199.408 372.607 C 199.411 372.634,202.084 372.656,205.347 372.656 L 211.280 372.656 209.926 368.701 C 209.181 366.526,208.141 363.472,207.615 361.914 C 207.089 360.356,205.858 356.753,204.880 353.906 C 203.902 351.060,202.849 347.983,202.541 347.070 C 201.834 344.975,198.112 334.128,196.945 330.762 C 196.461 329.365,195.928 327.761,195.759 327.197 L 195.453 326.172 189.351 326.172 C 183.709 326.172,183.241 326.198,183.146 326.514 M221.616 326.318 C 221.568 326.399,221.469 326.948,221.397 327.539 C 221.324 328.130,221.185 329.097,221.089 329.688 C 220.993 330.278,220.823 331.355,220.711 332.080 C 220.106 336.004,220.086 336.135,219.523 339.893 C 219.407 340.672,219.233 341.792,219.136 342.383 C 218.933 343.630,218.429 346.822,218.157 348.584 C 217.975 349.766,217.821 350.785,217.375 353.761 C 217.258 354.539,217.086 355.659,216.992 356.250 C 216.898 356.841,216.730 357.939,216.619 358.691 C 216.507 359.443,216.234 361.201,216.012 362.598 C 215.789 363.994,215.479 365.972,215.323 366.992 C 214.934 369.533,214.638 371.477,214.543 372.119 L 214.463 372.656 220.024 372.656 C 224.004 372.656,225.586 372.594,225.586 372.437 C 225.586 372.317,225.718 371.284,225.878 370.142 C 226.039 369.001,226.262 367.363,226.373 366.504 C 226.584 364.869,226.784 363.326,227.142 360.547 C 227.260 359.634,227.438 358.271,227.539 357.520 C 227.640 356.768,227.819 355.405,227.936 354.492 C 228.054 353.579,228.270 351.997,228.417 350.977 C 228.563 349.956,228.741 348.572,228.813 347.900 C 228.991 346.244,229.128 346.260,229.760 348.011 C 230.274 349.436,230.565 350.232,231.432 352.588 C 231.640 353.152,232.218 354.756,232.717 356.152 C 233.216 357.549,233.786 359.131,233.984 359.668 C 234.183 360.205,234.753 361.787,235.252 363.184 C 235.751 364.580,236.329 366.184,236.537 366.748 C 236.744 367.312,237.082 368.235,237.288 368.799 C 237.494 369.363,237.897 370.461,238.184 371.240 L 238.706 372.656 241.033 372.656 C 242.870 372.656,243.359 372.600,243.359 372.389 C 243.359 372.243,243.528 371.693,243.734 371.169 C 244.180 370.034,246.155 364.806,246.714 363.281 C 246.931 362.690,247.177 362.031,247.262 361.816 C 247.656 360.813,248.451 358.742,248.987 357.324 C 249.312 356.465,250.076 354.443,250.685 352.832 C 251.295 351.221,252.057 349.199,252.379 348.340 C 252.701 347.480,253.027 346.610,253.104 346.407 C 253.190 346.180,253.340 346.905,253.490 348.262 C 253.626 349.486,253.816 351.104,253.913 351.855 C 254.009 352.607,254.186 354.102,254.305 355.176 C 254.424 356.250,254.649 358.184,254.805 359.473 C 255.153 362.341,255.384 364.337,255.666 366.895 C 255.784 367.969,255.964 369.436,256.065 370.155 C 256.167 370.874,256.250 371.731,256.250 372.059 L 256.250 372.656 261.816 372.656 C 266.820 372.656,267.383 372.624,267.383 372.340 C 267.383 372.165,267.252 371.089,267.092 369.947 C 266.932 368.805,266.708 367.212,266.595 366.406 C 266.482 365.601,266.302 364.282,266.196 363.477 C 266.089 362.671,265.922 361.440,265.825 360.742 C 265.727 360.044,265.554 358.770,265.441 357.910 C 265.231 356.326,264.429 350.492,264.066 347.900 C 263.957 347.122,263.781 345.847,263.675 345.068 C 263.570 344.290,263.399 343.037,263.296 342.285 C 263.192 341.533,263.014 340.215,262.900 339.355 C 262.785 338.496,262.391 335.640,262.024 333.008 C 261.657 330.376,261.298 327.761,261.227 327.197 L 261.096 326.172 255.548 326.172 C 252.497 326.172,250.000 326.195,250.000 326.223 C 250.000 326.252,249.819 326.757,249.599 327.347 C 249.378 327.936,248.798 329.517,248.310 330.859 C 247.260 333.748,245.427 338.758,244.915 340.137 C 244.591 341.011,242.926 345.574,241.994 348.145 C 241.160 350.442,241.049 350.680,240.948 350.391 C 240.355 348.693,239.425 346.016,239.185 345.313 C 239.019 344.829,238.303 342.764,237.593 340.723 C 236.883 338.682,235.963 336.001,235.549 334.766 C 235.135 333.530,234.306 331.122,233.707 329.415 C 233.108 327.707,232.617 326.279,232.617 326.241 C 232.617 326.100,221.700 326.177,221.616 326.318 M274.414 349.414 L 274.414 372.656 279.980 372.656 L 285.547 372.656 285.547 349.414 L 285.547 326.172 279.980 326.172 L 274.414 326.172 274.414 349.414 M294.922 349.414 L 294.922 372.656 300.488 372.656 L 306.055 372.656 306.055 358.471 L 306.055 344.285 308.038 347.094 C 309.128 348.638,310.768 350.957,311.683 352.246 C 312.597 353.535,313.960 355.469,314.713 356.543 C 315.998 358.377,321.234 365.768,323.707 369.238 C 324.320 370.098,325.103 371.217,325.448 371.725 L 326.074 372.649 331.592 372.653 L 337.109 372.656 337.109 349.414 L 337.109 326.172 331.544 326.172 L 325.979 326.172 325.929 340.218 L 325.879 354.265 324.567 352.377 C 323.845 351.338,322.103 348.862,320.696 346.875 C 317.464 342.312,315.338 339.304,312.895 335.840 C 311.834 334.336,310.892 333.018,310.801 332.910 C 310.709 332.803,310.030 331.836,309.290 330.762 C 308.551 329.688,307.512 328.215,306.982 327.490 L 306.018 326.172 300.470 326.172 L 294.922 326.172 294.922 349.414 M358.633 326.706 C 358.105 328.093,357.458 329.913,356.113 333.789 C 355.312 336.099,354.056 339.702,353.323 341.797 C 350.632 349.482,349.155 353.706,347.757 357.715 C 346.234 362.083,344.178 367.941,343.183 370.752 C 342.850 371.691,342.578 372.504,342.578 372.558 C 342.578 372.612,345.217 372.656,348.442 372.656 L 354.305 372.656 354.479 372.217 C 354.703 371.652,355.247 370.174,356.223 367.480 C 356.651 366.299,357.061 365.178,357.135 364.990 C 357.259 364.673,357.806 364.648,364.745 364.648 L 372.222 364.648 373.331 367.920 C 373.941 369.719,374.544 371.521,374.670 371.924 L 374.900 372.656 380.809 372.656 C 384.059 372.656,386.719 372.617,386.719 372.570 C 386.719 372.429,384.923 367.086,383.005 361.523 C 382.024 358.677,380.970 355.601,380.664 354.688 C 380.090 352.978,376.812 343.400,374.380 336.328 C 373.623 334.126,372.545 330.962,371.983 329.297 L 370.963 326.270 364.901 326.218 L 358.839 326.166 358.633 326.706 M113.596 335.621 C 117.005 336.232,118.398 337.823,118.398 341.106 C 118.398 343.681,117.677 344.957,115.664 345.942 L 114.355 346.582 110.107 346.647 L 105.859 346.713 105.859 341.032 L 105.859 335.352 109.033 335.362 C 110.779 335.367,112.832 335.484,113.596 335.621 M33.301 336.012 C 36.548 336.603,37.869 338.188,37.878 341.504 C 37.890 345.864,35.917 347.070,28.774 347.070 L 24.414 347.070 24.414 341.406 L 24.414 335.742 28.174 335.752 C 30.327 335.758,32.518 335.869,33.301 336.012 M365.718 343.750 C 366.572 346.517,367.406 349.283,367.573 349.902 C 367.659 350.225,368.047 351.520,368.435 352.781 C 368.823 354.042,369.141 355.119,369.141 355.174 C 369.141 355.229,367.157 355.273,364.733 355.273 C 360.629 355.273,360.332 355.250,360.420 354.932 C 360.622 354.204,361.946 349.877,362.107 349.414 C 362.201 349.146,362.472 348.267,362.710 347.461 C 363.323 345.382,363.853 343.639,364.280 342.302 C 364.483 341.666,364.657 341.007,364.668 340.837 C 364.688 340.509,364.888 341.064,365.718 343.750 M189.453 341.121 C 189.453 341.287,189.637 342.012,189.862 342.733 C 190.086 343.453,190.557 344.966,190.909 346.094 C 191.260 347.222,191.729 348.760,191.950 349.512 C 192.171 350.264,192.650 351.846,193.014 353.027 L 193.675 355.176 191.466 355.231 C 190.252 355.261,188.256 355.261,187.031 355.231 L 184.804 355.176 185.052 354.395 C 185.188 353.965,185.496 352.954,185.736 352.148 C 185.977 351.343,186.465 349.761,186.821 348.633 C 187.177 347.505,187.663 345.923,187.902 345.117 C 188.140 344.312,188.499 343.132,188.699 342.497 C 188.899 341.862,189.063 341.224,189.063 341.081 C 189.063 340.938,189.150 340.820,189.258 340.820 C 189.365 340.820,189.453 340.956,189.453 341.121 " stroke="none" fill="#040404" fill-rule="evenodd"></path><path id="path4" d="M180.934 143.163 L 228.958 143.262 226.930 144.909 C 220.582 150.066,215.789 155.766,208.856 166.406 C 204.786 172.653,205.032 172.266,205.140 172.266 C 205.186 172.266,205.685 171.564,206.248 170.706 C 206.815 169.843,207.363 169.202,207.475 169.271 C 207.592 169.343,207.619 169.301,207.539 169.172 C 207.320 168.819,213.018 160.153,215.708 156.747 C 217.792 154.108,218.761 153.022,218.976 153.081 C 219.082 153.111,219.116 153.047,219.050 152.941 C 218.879 152.664,224.951 146.626,225.228 146.797 C 225.354 146.875,225.398 146.850,225.329 146.738 C 225.231 146.580,227.413 144.632,229.237 143.249 C 229.536 143.022,222.243 142.988,181.250 143.023 L 132.910 143.065 180.934 143.163 M131.885 143.299 C 132.073 143.348,132.380 143.348,132.568 143.299 C 132.756 143.250,132.603 143.209,132.227 143.209 C 131.851 143.209,131.697 143.250,131.885 143.299 M129.199 143.544 C 128.877 143.626,128.130 143.803,127.539 143.937 C 125.948 144.297,124.376 144.753,124.454 144.831 C 124.492 144.869,125.179 144.726,125.982 144.514 C 127.687 144.064,129.888 143.605,130.859 143.498 C 131.437 143.434,131.406 143.420,130.664 143.408 C 130.181 143.401,129.521 143.462,129.199 143.544 M121.940 145.665 C 121.492 145.847,121.053 146.069,120.963 146.159 C 120.874 146.248,121.284 146.131,121.875 145.898 C 122.466 145.666,122.986 145.439,123.031 145.394 C 123.197 145.228,122.730 145.344,121.940 145.665 M118.848 147.088 C 117.231 147.910,115.430 148.998,115.430 149.153 C 115.430 149.256,115.712 149.101,116.417 148.615 C 116.691 148.425,117.790 147.827,118.858 147.284 C 119.927 146.742,120.713 146.297,120.605 146.296 C 120.498 146.295,119.707 146.651,118.848 147.088 M113.159 150.668 C 112.098 151.466,110.609 152.718,109.849 153.452 C 108.365 154.885,108.804 154.595,110.513 153.014 C 111.085 152.484,112.360 151.450,113.345 150.716 C 115.294 149.263,115.350 149.219,115.194 149.219 C 115.136 149.219,114.220 149.871,113.159 150.668 M107.904 155.330 C 106.642 156.812,104.889 159.073,104.429 159.810 C 104.113 160.317,103.788 160.692,103.707 160.642 C 103.626 160.592,103.572 160.660,103.587 160.793 C 103.610 161.002,98.767 168.535,88.031 184.989 C 86.550 187.258,85.368 189.144,85.404 189.180 C 85.439 189.215,89.108 183.644,93.557 176.800 C 105.100 159.041,105.511 158.427,107.032 156.667 C 107.787 155.793,108.338 155.081,108.255 155.086 C 108.173 155.090,108.015 155.200,107.904 155.330 M202.609 176.007 C 200.125 179.810,199.825 180.294,200.150 179.980 C 200.261 179.873,201.354 178.247,202.579 176.367 C 205.188 172.362,205.126 172.461,205.013 172.461 C 204.964 172.461,203.882 174.056,202.609 176.007 M198.959 181.625 C 197.407 183.971,197.112 184.505,197.370 184.505 C 197.518 184.505,197.600 184.442,197.553 184.365 C 197.412 184.138,199.519 181.031,199.701 181.196 C 199.792 181.280,199.804 181.238,199.727 181.104 C 199.532 180.764,199.527 180.768,198.959 181.625 M196.253 185.791 C 195.012 187.668,194.876 187.891,194.974 187.891 C 195.059 187.891,196.606 185.646,196.958 185.010 C 197.310 184.374,196.858 184.875,196.253 185.791 M194.272 188.852 C 193.082 190.650,192.377 191.797,192.462 191.797 C 192.541 191.797,194.415 189.026,194.807 188.330 C 195.122 187.772,194.741 188.143,194.272 188.852 M84.027 191.162 C 82.733 193.101,81.872 194.528,82.169 194.238 C 82.451 193.963,85.358 189.453,85.253 189.453 C 85.205 189.453,84.653 190.222,84.027 191.162 M191.221 193.604 C 190.703 194.475,190.685 194.541,191.105 194.043 C 191.377 193.721,191.600 193.386,191.601 193.299 C 191.601 193.212,191.671 193.184,191.755 193.236 C 191.839 193.288,191.908 193.161,191.908 192.954 C 191.908 192.444,191.912 192.441,191.221 193.604 M81.092 195.654 C 80.359 196.738,79.713 197.860,79.940 197.654 C 80.147 197.467,82.024 194.531,81.937 194.531 C 81.889 194.531,81.509 195.037,81.092 195.654 M188.508 197.803 C 188.057 198.528,187.899 198.869,188.157 198.561 C 188.635 197.990,189.539 196.484,189.404 196.484 C 189.363 196.484,188.960 197.078,188.508 197.803 M77.968 200.439 C 77.323 201.385,76.900 202.148,77.022 202.148 C 77.068 202.148,77.463 201.577,77.901 200.879 C 78.794 199.455,78.838 199.164,77.968 200.439 M185.968 201.660 C 184.677 203.678,184.481 204.210,185.699 202.393 C 186.719 200.869,187.355 199.805,187.246 199.805 C 187.196 199.805,186.620 200.640,185.968 201.660 M74.834 205.273 C 74.638 205.595,74.405 205.792,74.317 205.712 C 74.228 205.632,74.228 205.690,74.315 205.840 C 74.480 206.124,74.747 205.884,75.216 205.029 C 75.537 204.446,75.210 204.654,74.834 205.273 M182.860 206.445 C 182.305 207.305,181.888 208.008,181.933 208.008 C 182.032 208.008,183.431 205.957,183.766 205.322 C 184.230 204.444,183.848 204.917,182.860 206.445 M72.817 208.394 C 72.485 208.928,72.156 209.330,72.086 209.287 C 72.016 209.244,71.959 209.378,71.959 209.585 C 71.959 210.091,71.948 210.101,72.688 208.936 C 73.047 208.372,73.410 207.800,73.496 207.666 C 73.582 207.532,73.600 207.422,73.537 207.422 C 73.473 207.422,73.150 207.859,72.817 208.394 M180.160 210.580 C 178.444 213.217,178.166 213.676,178.463 213.379 C 178.894 212.949,181.942 208.203,181.787 208.203 C 181.743 208.203,181.011 209.273,180.160 210.580 M70.361 212.158 C 69.359 213.631,68.876 214.453,69.010 214.453 C 69.091 214.453,69.590 213.722,70.799 211.832 C 71.805 210.260,71.494 210.491,70.361 212.158 M171.847 223.370 C 165.280 233.446,165.040 233.824,165.392 233.496 C 165.507 233.389,168.401 228.994,171.822 223.730 C 178.934 212.790,178.370 213.672,178.255 213.672 C 178.207 213.672,175.323 218.036,171.847 223.370 M67.921 215.967 C 67.021 217.321,66.649 217.945,66.846 217.773 C 67.146 217.511,69.012 214.648,68.883 214.648 C 68.835 214.648,68.402 215.242,67.921 215.967 M65.588 219.580 C 64.353 221.449,64.212 221.680,64.305 221.680 C 64.387 221.680,64.921 220.910,66.102 219.092 C 66.294 218.796,66.410 218.555,66.359 218.555 C 66.308 218.555,65.961 219.016,65.588 219.580 M63.867 222.058 C 63.867 222.158,63.354 223.015,62.728 223.962 C 61.535 225.763,59.558 228.816,59.027 229.675 C 58.857 229.950,58.812 230.088,58.929 229.980 C 59.107 229.816,62.261 225.042,63.800 222.607 C 64.054 222.205,64.174 221.875,64.065 221.875 C 63.956 221.875,63.867 221.957,63.867 222.058 M55.013 235.828 C 51.207 241.681,51.035 241.954,51.313 241.699 C 51.430 241.592,53.010 239.219,54.824 236.426 C 58.663 230.516,58.446 230.859,58.332 230.859 C 58.283 230.859,56.790 233.095,55.013 235.828 M164.223 235.107 C 163.013 236.932,162.588 237.632,162.828 237.402 C 163.197 237.050,165.317 233.789,165.177 233.789 C 165.133 233.789,164.703 234.382,164.223 235.107 M160.226 241.241 C 157.742 245.044,157.443 245.528,157.767 245.215 C 157.879 245.107,158.972 243.481,160.196 241.602 C 162.806 237.596,162.744 237.695,162.630 237.695 C 162.582 237.695,161.500 239.291,160.226 241.241 M49.896 243.688 C 49.288 244.621,48.657 245.588,48.494 245.837 C 48.331 246.085,48.239 246.289,48.290 246.289 C 48.381 246.289,49.203 245.089,50.508 243.049 C 50.880 242.468,51.143 241.992,51.093 241.992 C 51.042 241.992,50.504 242.755,49.896 243.688 M155.265 248.877 C 152.646 252.892,152.403 253.282,152.678 253.027 C 152.794 252.920,153.890 251.294,155.115 249.414 C 157.750 245.369,157.664 245.508,157.552 245.508 C 157.503 245.508,156.474 247.024,155.265 248.877 M38.522 261.182 C 33.260 269.265,27.889 277.505,26.586 279.492 C 24.316 282.952,23.369 284.502,23.779 284.082 C 23.884 283.975,29.282 275.713,35.776 265.723 C 42.269 255.732,47.740 247.317,47.934 247.021 C 48.128 246.726,48.242 246.484,48.187 246.484 C 48.132 246.484,43.783 253.098,38.522 261.182 M151.527 254.639 C 150.318 256.464,149.893 257.163,150.133 256.934 C 150.502 256.581,152.622 253.320,152.482 253.320 C 152.437 253.320,152.008 253.914,151.527 254.639 M148.792 258.838 C 147.790 260.353,147.364 261.060,147.586 260.840 C 147.856 260.571,149.116 258.760,149.395 258.239 C 149.806 257.471,149.483 257.791,148.792 258.838 M146.449 262.451 C 144.990 264.652,144.873 264.844,144.985 264.844 C 145.044 264.844,145.566 264.119,146.145 263.232 C 147.404 261.307,147.508 261.133,147.403 261.133 C 147.359 261.133,146.930 261.726,146.449 262.451 M143.915 266.357 C 142.490 268.577,142.386 268.750,142.471 268.750 C 142.516 268.750,143.030 268.025,143.612 267.139 C 144.847 265.257,144.976 265.039,144.853 265.039 C 144.803 265.039,144.381 265.632,143.915 266.357 M141.526 270.020 C 141.353 270.288,141.069 270.750,140.895 271.045 L 140.579 271.582 140.999 271.094 C 141.439 270.582,142.060 269.531,141.922 269.531 C 141.878 269.531,141.700 269.751,141.526 270.020 M138.508 274.756 C 138.057 275.481,137.899 275.822,138.157 275.514 C 138.635 274.943,139.539 273.438,139.404 273.438 C 139.363 273.438,138.960 274.031,138.508 274.756 M135.399 279.492 C 134.844 280.352,134.427 281.055,134.472 281.055 C 134.571 281.055,135.971 279.004,136.305 278.369 C 136.769 277.491,136.387 277.964,135.399 279.492 M133.769 281.982 C 133.526 282.385,132.766 283.449,132.081 284.346 C 131.395 285.243,130.862 286.005,130.896 286.039 C 130.930 286.073,131.441 285.459,132.031 284.675 C 132.622 283.892,133.193 283.298,133.301 283.356 C 133.408 283.414,133.435 283.393,133.361 283.311 C 133.286 283.228,133.424 282.840,133.667 282.449 C 134.353 281.346,134.404 281.250,134.305 281.250 C 134.254 281.250,134.013 281.580,133.769 281.982 M22.693 285.498 C 21.961 286.582,21.315 287.703,21.541 287.498 C 21.748 287.310,23.625 284.375,23.538 284.375 C 23.491 284.375,23.111 284.880,22.693 285.498 M129.194 287.717 C 128.011 288.924,125.792 290.867,123.911 292.343 C 123.597 292.589,123.746 292.527,124.243 292.204 C 124.739 291.881,125.208 291.679,125.284 291.756 C 125.361 291.832,125.394 291.800,125.358 291.685 C 125.322 291.570,125.820 291.030,126.465 290.485 C 127.664 289.471,130.831 286.328,130.654 286.328 C 130.600 286.328,129.943 286.953,129.194 287.717 M20.055 289.550 C 19.587 290.248,19.165 290.779,19.117 290.731 C 19.068 290.683,19.029 290.811,19.029 291.016 C 19.029 291.220,19.048 291.369,19.071 291.346 C 19.257 291.160,21.065 288.281,20.996 288.281 C 20.947 288.281,20.524 288.852,20.055 289.550 M122.293 293.363 C 121.135 294.124,121.013 294.300,122.033 293.738 C 122.495 293.483,122.967 293.162,123.082 293.024 C 123.369 292.679,123.271 292.720,122.293 293.363 M17.030 294.189 C 16.451 295.039,15.867 296.083,16.083 295.886 C 16.291 295.695,17.769 293.359,17.681 293.359 C 17.635 293.359,17.342 293.733,17.030 294.189 M120.072 294.676 C 119.564 294.959,119.180 295.222,119.219 295.261 C 119.298 295.340,120.697 294.593,120.986 294.318 C 121.277 294.041,121.069 294.122,120.072 294.676 M116.699 296.309 C 115.174 296.970,112.034 298.039,111.546 298.062 C 111.351 298.072,111.322 298.115,111.470 298.175 C 111.887 298.343,117.556 296.371,118.057 295.884 C 118.329 295.618,118.203 295.658,116.699 296.309 M14.328 298.343 C 13.934 298.935,13.655 299.462,13.707 299.514 C 13.758 299.565,33.997 299.609,58.681 299.610 C 101.412 299.613,107.423 299.546,106.952 299.074 C 106.901 299.023,106.137 299.079,105.254 299.198 C 104.120 299.351,90.458 299.414,58.752 299.414 L 13.855 299.414 14.542 298.340 C 14.920 297.749,15.188 297.266,15.136 297.266 C 15.085 297.266,14.721 297.750,14.328 298.343 M110.059 298.438 C 109.527 298.573,109.518 298.587,109.961 298.596 C 110.229 298.601,110.625 298.530,110.840 298.438 C 111.321 298.231,110.872 298.231,110.059 298.438 M108.105 298.775 C 107.783 298.821,107.447 298.929,107.358 299.015 C 107.269 299.101,107.664 299.086,108.237 298.982 C 109.834 298.693,109.739 298.542,108.105 298.775 " stroke="none" fill="#046cbc" fill-rule="evenodd"></path></g></svg>